<svg width="72" height="64" viewBox="0 0 72 64" fill="none" xmlns="http://www.w3.org/2000/svg">
<path d="M30.3152 5.4341L2.75207 52.2999C2.18378 53.3023 1.88309 54.4387 1.87991 55.5962C1.87673 56.7536 2.17117 57.8918 2.73393 58.8973C3.2967 59.9029 4.10818 60.7409 5.08764 61.3279C6.0671 61.9149 7.18039 62.2304 8.31676 62.2432H63.443C64.5794 62.2304 65.6927 61.9149 66.6721 61.3279C67.6516 60.7409 68.4631 59.9029 69.0258 58.8973C69.5886 57.8918 69.883 56.7536 69.8799 55.5962C69.8767 54.4387 69.576 53.3023 69.0077 52.2999L41.4446 5.4341C40.8644 4.46001 40.0476 3.65465 39.0729 3.09572C38.0982 2.53679 36.9985 2.24316 35.8799 2.24316C34.7613 2.24316 33.6616 2.53679 32.6869 3.09572C31.7122 3.65465 30.8953 4.46001 30.3152 5.4341V5.4341Z" stroke="#CA0814" stroke-width="3" stroke-linecap="round" stroke-linejoin="round"/>
<path d="M35.8799 22.4702V35.7279" stroke="#CA0814" stroke-width="2" stroke-linecap="round" stroke-linejoin="round"/>
<path d="M35.8799 45.671V47.3282" stroke="#CA0814" stroke-width="2" stroke-linecap="round" stroke-linejoin="round"/>
</svg>
